<svg xmlns="http://www.w3.org/2000/svg" width="140" height="140">
<g>
<path fill="#8dc63f" d="m139.4 70c0-36.34-31.2-65.98-69.41-65.98s-69.38 29.64-69.38 65.98 31.17 65.98 69.38 65.98c38.22 0 69.39-29.64 69.39-65.98z"/>
<path fill="#fff" d="m28.14 97.52c0.44 0 0.88-0.1 1.33-0.1h0.7c0.55 0 1.09 0 1.62 0.1 0.44 0 0.89 0.1 1.32 0.14 0.37 0.1 0.73 0.12 1.09 0.19 0.28 0.1 0.55 0.13 0.83 0.19-0.15-0.31-0.31-0.61-0.49-0.88-0.24-0.35-0.51-0.67-0.78-0.93-0.21-0.19-0.44-0.35-0.67-0.46-0.1-0.1-0.2-0.1-0.29-0.14-0.83-0.36-1.72-0.55-2.62-0.55-0.55 0-1.09 0.1-1.62 0.21-0.34 0.1-0.68 0.2-1.01 0.35-0.1 0-0.19 0.1-0.28 0.13-0.24 0.11-0.47 0.28-0.69 0.48-0.49 0.45-0.92 1.07-1.25 1.79 0.55-0.14 1.12-0.26 1.71-0.36 0.36-0.1 0.72-0.1 1.1-0.13zm17.97 20.03c-3.5-1.75-6.35-5.15-6.35-9.72 0-4.56-2.68-6.54-3.73-7.14-1.29-0.5-2.78-0.85-4.39-0.99-0.48 0-0.98-0.1-1.47-0.1h-0.65c-2.31 0.1-4.44 0.6-6.09 1.42-2.5 1.66-2.28 5.23-2.28 5.23 0 11.32 8.51 13.84 16.08 13.84 3.34 0 6.5-0.48 8.66-0.93 0.83-0.16 0.98-1.28 0.22-1.66zm-13.33-24.32v-32.58-2.78-31.88c0-1.17-0.95-2.12-2.12-2.12-1.16 0-2.11 0.95-2.11 2.12v66.99c0.52-0.1 1.08-0.15 1.62-0.15 0.89 0 1.78 0.13 2.61 0.4zm57.98-15.84c1.62-1.2 1.96-3.5 0.75-5.12l-17.56-23.6c-3.73-4.98-11.18-4.76-15.83-1.29l-14.54 10.82-8.78-4.86v8.38l7.29 4.05c0.55 0.3 1.17 0.45 1.78 0.45 0.78 0 1.55-0.24 2.2-0.72l8.28-6.17v9.1l-8.77 24.47c-0.31 0.82 0.31 1.7 1.17 1.7h7.6v18.95c0 2.72 2.2 4.92 4.92 4.92 2.73 0 4.93-2.2 4.93-4.92v-18.97h2.37v18.95c0 2.72 2.21 4.92 4.93 4.92s4.92-2.2 4.92-4.92v-18.95h7.6c0.88 0 1.48-0.87 1.17-1.7l-8.77-24.47v-4.18l9.23 12.4c0.72 0.97 1.82 1.47 2.95 1.47 0.74 0 1.5-0.22 2.16-0.71zm-34.93-34.06c2.55 0 5.36-1.42 5.36-1.42-1.32-0.77-2-2.31-2.33-3.86 1.39 2.3 3.79 3.82 6.52 3.82 2.72 0 5.12-1.52 6.51-3.82-0.33 1.56-1.01 3.09-2.33 3.86 0 0 2.81 1.42 5.36 1.42 1.65 0 3.21-0.59 3.82-2.57 0.1-0.3 0-0.62-0.3-0.76-0.92-0.49-2.95-1.92-2.95-4.87 0-3.81 0.95-15.36-10.11-15.36-11.07 0-10.12 11.55-10.12 15.36 0 2.95-2.02 4.38-2.94 4.87-0.28 0.15-0.41 0.47-0.31 0.76 0.61 1.97 2.17 2.57 3.82 2.57zm57.14 52.17h-11.15l-10.31-7.55c-1.01-0.74-2.42-0.53-3.15 0.48s-0.52 2.42 0.49 3.15l5.33 3.92h-3.55c-0.77 0-1.36 0.7-1.22 1.45l3.28 19.09c0.11 0.59 0.62 1.02 1.22 1.02h7.89 8c0.6 0 1.12-0.43 1.22-1.03l3.17-19.09c0.14-0.75-0.44-1.44-1.2-1.44zm-11.26 6.67c-0.96 0.15-1.85-0.51-1.99-1.46-0.1-0.37 0-0.73 0.16-1.05 0.25-0.49 0.73-0.86 1.31-0.94 0.64-0.1 1.27 0.17 1.64 0.66 0.18 0.23 0.31 0.5 0.35 0.81 0.14 0.94-0.51 1.83-1.47 1.98z"/>
</g>
</svg>
